<svg width="512" height="512" version="1.1" xmlns="http://www.w3.org/2000/svg" desc="Created with imagetracer.js version 1.2.6" ><path fill="rgb(0,0,0)" stroke="rgb(0,0,0)" stroke-width="1" opacity="0.803921568627451" d="M 222.5 18 L 225 18.5 L 222.5 19 L 222.5 18 Z " /><path fill="rgb(0,0,0)" stroke="rgb(0,0,0)" stroke-width="1" opacity="0.803921568627451" d="M 249.5 18 L 252 18.5 L 249.5 19 L 249.5 18 Z " /><path fill="rgb(0,0,0)" stroke="rgb(0,0,0)" stroke-width="1" opacity="0.803921568627451" d="M 299.5 36 L 300.5 38 L 299.5 36 Z " /><path fill="rgb(0,0,0)" stroke="rgb(0,0,0)" stroke-width="1" opacity="0.803921568627451" d="M 170.5 39 L 169.5 41 L 170.5 39 Z " /><path fill="rgb(0,0,0)" stroke="rgb(0,0,0)" stroke-width="1" opacity="0.803921568627451" d="M 166.5 42 L 164.5 45 L 166.5 42 Z " /><path fill="rgb(0,0,0)" stroke="rgb(0,0,0)" stroke-width="1" opacity="0.803921568627451" d="M 307.5 42 L 309.5 45 L 307.5 42 Z " /><path fill="rgb(0,0,0)" stroke="rgb(0,0,0)" stroke-width="1" opacity="0.803921568627451" d="M 152.5 56 L 150.5 59 L 152.5 56 Z " /><path fill="rgb(0,0,0)" stroke="rgb(0,0,0)" stroke-width="1" opacity="0.803921568627451" d="M 322.5 57 L 323.5 59 L 322.5 57 Z " /><path fill="rgb(0,0,0)" stroke="rgb(0,0,0)" stroke-width="1" opacity="0.803921568627451" d="M 148.5 61 L 147.5 63 L 148.5 61 Z " /><path fill="rgb(0,0,0)" stroke="rgb(0,0,0)" stroke-width="1" opacity="0.803921568627451" d="M 326.5 62 L 327.5 64 L 326.5 62 Z " /><path fill="rgb(0,0,0)" stroke="rgb(0,0,0)" stroke-width="1" opacity="0.803921568627451" d="M 145.5 65 L 144.5 67 L 145.5 65 Z " /><path fill="rgb(0,0,0)" stroke="rgb(0,0,0)" stroke-width="1" opacity="0.803921568627451" d="M 143.5 68 L 142.5 70 L 143.5 68 Z " /><path fill="rgb(0,0,0)" stroke="rgb(0,0,0)" stroke-width="1" opacity="0.803921568627451" d="M 348.5 119 L 349 123.5 L 348 123.5 L 348.5 119 Z " /><path fill="rgb(0,0,0)" stroke="rgb(0,0,0)" stroke-width="1" opacity="0.803921568627451" d="M 125.5 121 L 126 127.5 L 125 127.5 L 125.5 121 Z " /><path fill="rgb(0,0,0)" stroke="rgb(0,0,0)" stroke-width="1" opacity="0.803921568627451" d="M 125.5 131 L 126 137.5 L 125 137.5 L 125.5 131 Z " /><path fill="rgb(0,0,0)" stroke="rgb(0,0,0)" stroke-width="1" opacity="0.803921568627451" d="M 348.5 135 L 349 138.5 L 348 138.5 L 348.5 135 Z " /><path fill="rgb(0,0,0)" stroke="rgb(0,0,0)" stroke-width="1" opacity="0.803921568627451" d="M 147.5 196 L 148.5 198 L 147.5 196 Z " /><path fill="rgb(0,0,0)" stroke="rgb(0,0,0)" stroke-width="1" opacity="0.803921568627451" d="M 326.5 196 L 325.5 198 L 326.5 196 Z " /><path fill="rgb(0,0,0)" stroke="rgb(0,0,0)" stroke-width="1" opacity="0.803921568627451" d="M 151.5 201 L 154.5 205 L 151.5 201 Z " /><path fill="rgb(0,0,0)" stroke="rgb(0,0,0)" stroke-width="1" opacity="0.803921568627451" d="M 322.5 201 L 320.5 204 L 322.5 201 Z " /><path fill="rgb(0,0,0)" stroke="rgb(0,0,0)" stroke-width="1" opacity="0.803921568627451" d="M 161.5 211 L 164.5 215 L 161.5 211 Z " /><path fill="rgb(0,0,0)" stroke="rgb(0,0,0)" stroke-width="1" opacity="0.803921568627451" d="M 310.5 213 L 308.5 216 L 310.5 213 Z " /><path fill="rgb(0,0,0)" stroke="rgb(0,0,0)" stroke-width="1" opacity="0.803921568627451" d="M 168.5 217 L 169.5 219 L 168.5 217 Z " /><path fill="rgb(0,0,0)" stroke="rgb(0,0,0)" stroke-width="1" opacity="0.803921568627451" d="M 301.5 220 L 300.5 222 L 301.5 220 Z " /><path fill="rgb(0,0,0)" stroke="rgb(0,0,0)" stroke-width="1" opacity="0.803921568627451" d="M 383.5 239 L 386 239.5 L 383.5 240 L 383.5 239 Z " /><path fill="rgb(0,0,0)" stroke="rgb(0,0,0)" stroke-width="1" opacity="0.803921568627451" d="M 224.5 240 L 227 240.5 L 224.5 241 L 224.5 240 Z " /><path fill="rgb(0,0,0)" stroke="rgb(0,0,0)" stroke-width="1" opacity="0.803921568627451" d="M 247.5 240 L 250 240.5 L 247.5 241 L 247.5 240 Z " /><path fill="rgb(0,0,0)" stroke="rgb(0,0,0)" stroke-width="1" opacity="0.803921568627451" d="M 300.5 251 L 298.5 254 L 300.5 251 Z " /><path fill="rgb(0,0,0)" stroke="rgb(0,0,0)" stroke-width="1" opacity="0.803921568627451" d="M 413.5 252 L 419.5 259 L 413.5 252 Z " /><path fill="rgb(0,0,0)" stroke="rgb(0,0,0)" stroke-width="1" opacity="0.803921568627451" d="M 293.5 258 L 291.5 261 L 293.5 258 Z " /><path fill="rgb(0,0,0)" stroke="rgb(0,0,0)" stroke-width="1" opacity="0.803921568627451" d="M 333.5 270 L 380 270.5 L 333.5 271 L 333.5 270 Z " /><path fill="rgb(0,0,0)" stroke="rgb(0,0,0)" stroke-width="1" opacity="0.803921568627451" d="M 390.5 274 L 391.5 276 L 390.5 274 Z " /><path fill="rgb(0,0,0)" stroke="rgb(0,0,0)" stroke-width="1" opacity="0.803921568627451" d="M 419.5 278 L 417.5 281 L 419.5 278 Z " /><path fill="rgb(0,0,0)" stroke="rgb(0,0,0)" stroke-width="1" opacity="0.803921568627451" d="M 209.5 288 L 216 288.5 L 209.5 289 L 209.5 288 Z " /><path fill="rgb(0,0,0)" stroke="rgb(0,0,0)" stroke-width="1" opacity="0.803921568627451" d="M 197.5 289 L 201 289.5 L 197.5 290 L 197.5 289 Z " /><path fill="rgb(0,0,0)" stroke="rgb(0,0,0)" stroke-width="1" opacity="0.803921568627451" d="M 188.5 290 L 191 290.5 L 188.5 291 L 188.5 290 Z " /><path fill="rgb(0,0,0)" stroke="rgb(0,0,0)" stroke-width="1" opacity="0.803921568627451" d="M 279.5 293 L 280 439.5 L 279 439.5 L 279.5 293 Z " /><path fill="rgb(0,0,0)" stroke="rgb(0,0,0)" stroke-width="1" opacity="0.803921568627451" d="M 422.5 308 L 425 308.5 L 422.5 309 L 422.5 308 Z " /><path fill="rgb(0,0,0)" stroke="rgb(0,0,0)" stroke-width="1" opacity="0.803921568627451" d="M 427.5 308 L 430 308.5 L 427.5 309 L 427.5 308 Z " /><path fill="rgb(0,0,0)" stroke="rgb(0,0,0)" stroke-width="1" opacity="0.803921568627451" d="M 435.5 311 L 436.5 313 L 435.5 311 Z " /><path fill="rgb(0,0,0)" stroke="rgb(0,0,0)" stroke-width="1" opacity="0.803921568627451" d="M 413.5 314 L 412.5 316 L 413.5 314 Z " /><path fill="rgb(0,0,0)" stroke="rgb(0,0,0)" stroke-width="1" opacity="0.803921568627451" d="M 412.5 332 L 413.5 334 L 412.5 332 Z " /><path fill="rgb(0,0,0)" stroke="rgb(0,0,0)" stroke-width="1" opacity="0.803921568627451" d="M 40.5 338 L 35.5 344 L 40.5 338 Z " /><path fill="rgb(0,0,0)" stroke="rgb(0,0,0)" stroke-width="1" opacity="0.803921568627451" d="M 342.5 353 L 341.5 355 L 342.5 353 Z " /><path fill="rgb(0,0,0)" stroke="rgb(0,0,0)" stroke-width="1" opacity="0.803921568627451" d="M 27.5 362 L 28 448.5 L 27 448.5 L 27.5 362 Z " /><path fill="rgb(0,0,0)" stroke="rgb(0,0,0)" stroke-width="1" opacity="0.803921568627451" d="M 484.5 364 L 485 368.5 L 484 368.5 L 484.5 364 Z " /><path fill="rgb(0,0,0)" stroke="rgb(0,0,0)" stroke-width="1" opacity="0.803921568627451" d="M 335.5 365 L 336 368.5 L 335 368.5 L 335.5 365 Z " /><path fill="rgb(0,0,0)" stroke="rgb(0,0,0)" stroke-width="1" opacity="0.803921568627451" d="M 480.5 377 L 479.5 379 L 480.5 377 Z " /><path fill="rgb(0,0,0)" stroke="rgb(0,0,0)" stroke-width="1" opacity="0.803921568627451" d="M 350.5 382 L 429.5 382 L 430 383.5 L 413 399.5 L 428.5 383 L 350.5 383 L 350.5 382 Z " /><path fill="rgb(0,0,0)" stroke="rgb(0,0,0)" stroke-width="1" opacity="0.803921568627451" d="M 410.5 405 L 411 407.5 L 410 407.5 L 410.5 405 Z " /><path fill="rgb(0,0,0)" stroke="rgb(0,0,0)" stroke-width="1" opacity="0.803921568627451" d="M 247.5 445 L 248 447.5 L 247 447.5 L 247.5 445 Z " /><path fill="rgb(0,0,0)" stroke="rgb(0,0,0)" stroke-width="1" opacity="0.803921568627451" d="M 397.5 452 L 393.5 457 L 397.5 452 Z " /><path fill="rgb(0,0,0)" stroke="rgb(0,0,0)" stroke-width="1" opacity="0.803921568627451" d="M 316.5 453 L 320.5 458 L 316.5 453 Z " /><path fill="rgb(0,0,0)" stroke="rgb(0,0,0)" stroke-width="1" opacity="0.803921568627451" d="M 35.5 467 L 37.5 470 L 35.5 467 Z " /><path fill="rgb(0,0,0)" stroke="rgb(0,0,0)" stroke-width="1" opacity="0.803921568627451" d="M 39.5 471 L 41.5 474 L 39.5 471 Z " /><path fill="rgb(0,0,0)" stroke="rgb(0,0,0)" stroke-width="1" opacity="0.803921568627451" d="M 290.5 471 L 291.5 473 L 290.5 471 Z " /><path fill="rgb(0,0,0)" stroke="rgb(0,0,0)" stroke-width="1" opacity="0.803921568627451" d="M 420.5 473 L 419.5 475 L 420.5 473 Z " /><path fill="rgb(0,0,0)" stroke="rgb(0,0,0)" stroke-width="1" opacity="0.803921568627451" d="M 63.5 481 L 258 481.5 L 63.5 482 L 63.5 481 Z " /><path fill="rgb(0,0,0)" stroke="rgb(0,0,0)" stroke-width="1" opacity="0.803921568627451" d="M 412.5 481 L 411.5 483 L 412.5 481 Z " /><path fill="rgb(0,0,0)" stroke="rgb(0,0,0)" stroke-width="1" opacity="0.803921568627451" d="M 325.5 493 L 328 493.5 L 325.5 494 L 325.5 493 Z " /><path fill="rgb(0,0,0)" stroke="rgb(0,0,0)" stroke-width="1" opacity="0.803921568627451" d="M 335.5 494 L 378 494.5 L 335.5 495 L 335.5 494 Z " /><path fill="rgb(0,0,0)" stroke="rgb(0,0,0)" stroke-width="1" opacity="0" d="M 0 0 L 512 0 L 512 512 L 0 512 L 0 0 Z M 229 17 L 228 18 L 220 18 L 210 20 L 195 25 Q 176 33 163 45 Q 147 59 137 78 L 129 98 L 125 117 L 125 142 L 131 168 Q 140 190 155 207 Q 170 222 191 232 L 216 240 L 230 241 L 231 242 L 253 241 L 277 235 Q 297 227 313 213 Q 327 200 337 182 L 346 159 L 349 143 L 349 117 L 346 101 Q 338 74 322 56 Q 305 36 280 25 L 255 18 L 229 17 Z M 335 238 L 334 239 L 326 239 L 316 242 Q 304 246 297 254 Q 283 266 279 289 L 279 445 L 283 460 L 292 475 Q 305 491 330 495 L 384 495 L 399 491 L 415 481 L 422 473 L 424 465 L 421 456 L 413 449 L 403 449 L 390 459 L 383 462 L 331 462 L 322 458 Q 314 453 312 444 L 312 290 L 318 279 Q 323 273 332 271 L 381 271 L 391 275 Q 395 282 405 285 L 410 285 L 416 283 Q 422 279 424 270 L 421 260 Q 410 244 388 239 Q 381 241 380 238 L 335 238 Z M 223 287 L 222 288 L 205 288 L 204 289 L 194 289 L 193 290 L 171 292 L 130 301 Q 102 309 78 319 L 42 337 Q 30 344 27 360 L 27 451 L 29 458 L 37 471 L 52 480 L 60 482 L 259 482 L 253 470 L 248 450 L 248 289 L 247 287 L 223 287 Z M 422 308 L 414 312 L 410 320 L 411 332 L 428 350 L 350 350 L 341 354 L 335 364 Q 334 373 338 377 L 348 383 L 429 384 L 412 401 L 410 405 Q 408 414 412 419 Q 416 425 425 426 L 432 425 L 437 422 L 482 377 L 485 371 Q 486 360 481 356 L 435 310 Q 431 307 422 308 Z " /><path fill="rgb(0,0,0)" stroke="rgb(0,0,0)" stroke-width="1" opacity="1" d="M 225.5 18 L 248.5 18 L 265.5 21 L 277.5 25 Q 304.6 35.9 322 56.5 Q 333.6 69.9 341 87.5 L 348 113.5 L 349 134.5 L 348 135.5 L 348 144.5 L 346 155.5 L 340 173.5 Q 329.4 196.9 311.5 213 Q 295.9 226.9 274.5 235 L 254.5 240 L 227.5 241 L 226.5 240 L 219.5 240 L 209.5 238 L 194.5 233 Q 171.2 222.8 155 205.5 Q 139.5 189 131 165.5 L 126 144.5 Q 127.6 134.4 125 128.5 L 126 127.5 L 126 114.5 L 128 103.5 L 134 85.5 Q 144.9 61.4 163.5 45 Q 175 35 189.5 28 L 205.5 22 L 225.5 18 Z " /><path fill="rgb(0,0,0)" stroke="rgb(0,0,0)" stroke-width="1" opacity="1" d="M 330.5 239 L 382.5 239 Q 383.8 241.3 388.5 240 Q 409.9 245.1 421 260.5 Q 423.7 263.8 423 270.5 Q 421.6 278.6 415.5 282 Q 411.5 285 403.5 284 Q 395.1 280.9 390.5 274 L 379.5 270 L 333.5 270 L 328.5 271 L 318 277 L 313 284.5 L 311 290.5 L 311 442.5 Q 313.4 452.6 320.5 458 L 331.5 463 L 381.5 463 Q 393.6 460.1 399.5 451 L 409.5 449 Q 416.4 450.6 420 455.5 L 422 458.5 L 423 467.5 Q 420.2 476.2 413.5 481 Q 402.7 490.7 385.5 494 L 328.5 494 Q 304.2 489.8 292 473.5 Q 282.9 463.1 280 446.5 L 280 286.5 Q 284.3 265.8 297.5 254 L 314.5 243 L 330.5 239 Z " /><path fill="rgb(0,0,0)" stroke="rgb(0,0,0)" stroke-width="1" opacity="1" d="M 216.5 288 L 246.5 288 L 247 288.5 L 247 447.5 L 250 462.5 L 258 480.5 L 57.5 481 L 46.5 477 L 38 471 L 32 462.5 L 28 452.5 L 28 358.5 Q 31.5 344 42.5 337 Q 81 315 128.5 302 L 175.5 292 L 200.5 290 L 201.5 289 L 215.5 289 L 216.5 288 Z " /><path fill="rgb(0,0,0)" stroke="rgb(0,0,0)" stroke-width="1" opacity="1" d="M 425.5 308 L 431.5 309 L 437.5 313 L 482 357.5 Q 485.7 361.8 484 371.5 L 482 375.5 L 435.5 422 L 429.5 425 L 422.5 425 L 413 418.5 L 410 408.5 L 412 401.5 L 430 383.5 L 430 382 L 346.5 382 L 338 375.5 Q 334.5 371.5 336 362.5 L 340.5 355 L 348.5 351 L 430 350.5 L 414 334.5 Q 410 330.5 410 322.5 Q 411.3 315.8 415.5 312 L 420.5 309 L 425.5 308 Z " /><path fill="rgb(0,0,0)" stroke="rgb(0,0,0)" stroke-width="1" opacity="0.35294117647058826" d="M 228.5 17 L 236 17.5 L 228.5 18 L 228.5 17 Z " /><path fill="rgb(0,0,0)" stroke="rgb(0,0,0)" stroke-width="1" opacity="0.35294117647058826" d="M 238.5 17 L 247 17.5 L 238.5 18 L 238.5 17 Z " /><path fill="rgb(0,0,0)" stroke="rgb(0,0,0)" stroke-width="1" opacity="0.35294117647058826" d="M 219.5 18 L 222 18.5 L 219.5 19 L 219.5 18 Z " /><path fill="rgb(0,0,0)" stroke="rgb(0,0,0)" stroke-width="1" opacity="0.35294117647058826" d="M 252.5 18 L 255 18.5 L 252.5 19 L 252.5 18 Z " /><path fill="rgb(0,0,0)" stroke="rgb(0,0,0)" stroke-width="1" opacity="0.35294117647058826" d="M 175.5 35 L 174.5 37 L 175.5 35 Z " /><path fill="rgb(0,0,0)" stroke="rgb(0,0,0)" stroke-width="1" opacity="0.35294117647058826" d="M 301.5 37 L 302.5 39 L 301.5 37 Z " /><path fill="rgb(0,0,0)" stroke="rgb(0,0,0)" stroke-width="1" opacity="0.35294117647058826" d="M 168.5 40 L 167.5 42 L 168.5 40 Z " /><path fill="rgb(0,0,0)" stroke="rgb(0,0,0)" stroke-width="1" opacity="0.35294117647058826" d="M 305.5 40 L 306.5 42 L 305.5 40 Z " /><path fill="rgb(0,0,0)" stroke="rgb(0,0,0)" stroke-width="1" opacity="0.35294117647058826" d="M 310.5 44 L 321.5 56 L 310.5 44 Z " /><path fill="rgb(0,0,0)" stroke="rgb(0,0,0)" stroke-width="1" opacity="0.35294117647058826" d="M 162.5 45 L 153.5 55 L 162.5 45 Z " /><path fill="rgb(0,0,0)" stroke="rgb(0,0,0)" stroke-width="1" opacity="0.35294117647058826" d="M 149.5 59 L 148.5 61 L 149.5 59 Z " /><path fill="rgb(0,0,0)" stroke="rgb(0,0,0)" stroke-width="1" opacity="0.35294117647058826" d="M 324.5 59 L 325.5 61 L 324.5 59 Z " /><path fill="rgb(0,0,0)" stroke="rgb(0,0,0)" stroke-width="1" opacity="0.35294117647058826" d="M 146.5 63 L 145.5 65 L 146.5 63 Z " /><path fill="rgb(0,0,0)" stroke="rgb(0,0,0)" stroke-width="1" opacity="0.35294117647058826" d="M 125.5 116 L 126 120.5 L 125 120.5 L 125.5 116 Z " /><path fill="rgb(0,0,0)" stroke="rgb(0,0,0)" stroke-width="1" opacity="0.35294117647058826" d="M 348.5 116 L 349 118.5 L 348 118.5 L 348.5 116 Z " /><path fill="rgb(0,0,0)" stroke="rgb(0,0,0)" stroke-width="1" opacity="0.35294117647058826" d="M 125.5 138 L 126 141.5 L 125 141.5 L 125.5 138 Z " /><path fill="rgb(0,0,0)" stroke="rgb(0,0,0)" stroke-width="1" opacity="0.35294117647058826" d="M 348.5 139 L 349 142.5 L 348 142.5 L 348.5 139 Z " /><path fill="rgb(0,0,0)" stroke="rgb(0,0,0)" stroke-width="1" opacity="0.35294117647058826" d="M 347.5 147 L 348 149.5 L 347 149.5 L 347.5 147 Z " /><path fill="rgb(0,0,0)" stroke="rgb(0,0,0)" stroke-width="1" opacity="0.35294117647058826" d="M 332.5 188 L 331.5 190 L 332.5 188 Z " /><path fill="rgb(0,0,0)" stroke="rgb(0,0,0)" stroke-width="1" opacity="0.35294117647058826" d="M 330.5 191 L 329.5 193 L 330.5 191 Z " /><path fill="rgb(0,0,0)" stroke="rgb(0,0,0)" stroke-width="1" opacity="0.35294117647058826" d="M 328.5 194 L 327.5 196 L 328.5 194 Z " /><path fill="rgb(0,0,0)" stroke="rgb(0,0,0)" stroke-width="1" opacity="0.35294117647058826" d="M 325.5 198 L 323.5 201 L 325.5 198 Z " /><path fill="rgb(0,0,0)" stroke="rgb(0,0,0)" stroke-width="1" opacity="0.35294117647058826" d="M 149.5 199 L 150.5 201 L 149.5 199 Z " /><path fill="rgb(0,0,0)" stroke="rgb(0,0,0)" stroke-width="1" opacity="0.35294117647058826" d="M 319.5 205 L 312.5 213 L 319.5 205 Z " /><path fill="rgb(0,0,0)" stroke="rgb(0,0,0)" stroke-width="1" opacity="0.35294117647058826" d="M 155.5 206 L 159.5 211 L 155.5 206 Z " /><path fill="rgb(0,0,0)" stroke="rgb(0,0,0)" stroke-width="1" opacity="0.35294117647058826" d="M 165.5 215 L 167.5 218 L 165.5 215 Z " /><path fill="rgb(0,0,0)" stroke="rgb(0,0,0)" stroke-width="1" opacity="0.35294117647058826" d="M 307.5 216 L 306.5 218 L 307.5 216 Z " /><path fill="rgb(0,0,0)" stroke="rgb(0,0,0)" stroke-width="1" opacity="0.35294117647058826" d="M 303.5 219 L 302.5 221 L 303.5 219 Z " /><path fill="rgb(0,0,0)" stroke="rgb(0,0,0)" stroke-width="1" opacity="0.35294117647058826" d="M 173.5 221 L 174.5 223 L 173.5 221 Z " /><path fill="rgb(0,0,0)" stroke="rgb(0,0,0)" stroke-width="1" opacity="0.35294117647058826" d="M 176.5 223 L 177.5 225 L 176.5 223 Z " /><path fill="rgb(0,0,0)" stroke="rgb(0,0,0)" stroke-width="1" opacity="0.35294117647058826" d="M 334.5 238 L 380 238.5 L 334.5 239 L 334.5 238 Z " /><path fill="rgb(0,0,0)" stroke="rgb(0,0,0)" stroke-width="1" opacity="0.35294117647058826" d="M 325.5 239 L 328 239.5 L 325.5 240 L 325.5 239 Z " /><path fill="rgb(0,0,0)" stroke="rgb(0,0,0)" stroke-width="1" opacity="0.35294117647058826" d="M 221.5 240 L 224 240.5 L 221.5 241 L 221.5 240 Z " /><path fill="rgb(0,0,0)" stroke="rgb(0,0,0)" stroke-width="1" opacity="0.35294117647058826" d="M 250.5 240 L 253 240.5 L 250.5 241 L 250.5 240 Z " /><path fill="rgb(0,0,0)" stroke="rgb(0,0,0)" stroke-width="1" opacity="0.35294117647058826" d="M 230.5 241 L 244 241.5 L 230.5 242 L 230.5 241 Z " /><path fill="rgb(0,0,0)" stroke="rgb(0,0,0)" stroke-width="1" opacity="0.35294117647058826" d="M 407.5 247 L 408.5 249 L 407.5 247 Z " /><path fill="rgb(0,0,0)" stroke="rgb(0,0,0)" stroke-width="1" opacity="0.35294117647058826" d="M 302.5 249 L 301.5 251 L 302.5 249 Z " /><path fill="rgb(0,0,0)" stroke="rgb(0,0,0)" stroke-width="1" opacity="0.35294117647058826" d="M 411.5 250 L 412.5 252 L 411.5 250 Z " /><path fill="rgb(0,0,0)" stroke="rgb(0,0,0)" stroke-width="1" opacity="0.35294117647058826" d="M 296.5 254 L 294.5 257 L 296.5 254 Z " /><path fill="rgb(0,0,0)" stroke="rgb(0,0,0)" stroke-width="1" opacity="0.35294117647058826" d="M 321.5 275 L 320.5 277 L 321.5 275 Z " /><path fill="rgb(0,0,0)" stroke="rgb(0,0,0)" stroke-width="1" opacity="0.35294117647058826" d="M 392.5 276 L 397.5 282 L 392.5 276 Z " /><path fill="rgb(0,0,0)" stroke="rgb(0,0,0)" stroke-width="1" opacity="0.35294117647058826" d="M 317.5 279 L 316.5 281 L 317.5 279 Z " /><path fill="rgb(0,0,0)" stroke="rgb(0,0,0)" stroke-width="1" opacity="0.35294117647058826" d="M 416.5 281 L 415.5 283 L 416.5 281 Z " /><path fill="rgb(0,0,0)" stroke="rgb(0,0,0)" stroke-width="1" opacity="0.35294117647058826" d="M 404.5 284 L 410 284.5 L 404.5 285 L 404.5 284 Z " /><path fill="rgb(0,0,0)" stroke="rgb(0,0,0)" stroke-width="1" opacity="0.35294117647058826" d="M 222.5 287 L 247 287.5 L 222.5 288 L 222.5 287 Z " /><path fill="rgb(0,0,0)" stroke="rgb(0,0,0)" stroke-width="1" opacity="0.35294117647058826" d="M 204.5 288 L 209 288.5 L 204.5 289 L 204.5 288 Z " /><path fill="rgb(0,0,0)" stroke="rgb(0,0,0)" stroke-width="1" opacity="0.35294117647058826" d="M 279.5 288 L 280 292.5 L 279 292.5 L 279.5 288 Z " /><path fill="rgb(0,0,0)" stroke="rgb(0,0,0)" stroke-width="1" opacity="0.35294117647058826" d="M 193.5 289 L 197 289.5 L 193.5 290 L 193.5 289 Z " /><path fill="rgb(0,0,0)" stroke="rgb(0,0,0)" stroke-width="1" opacity="0.35294117647058826" d="M 247.5 289 L 248 444.5 L 247 444.5 L 247.5 289 Z " /><path fill="rgb(0,0,0)" stroke="rgb(0,0,0)" stroke-width="1" opacity="0.35294117647058826" d="M 185.5 290 L 188 290.5 L 185.5 291 L 185.5 290 Z " /><path fill="rgb(0,0,0)" stroke="rgb(0,0,0)" stroke-width="1" opacity="0.35294117647058826" d="M 177.5 291 L 180 291.5 L 177.5 292 L 177.5 291 Z " /><path fill="rgb(0,0,0)" stroke="rgb(0,0,0)" stroke-width="1" opacity="0.35294117647058826" d="M 170.5 292 L 173 292.5 L 170.5 293 L 170.5 292 Z " /><path fill="rgb(0,0,0)" stroke="rgb(0,0,0)" stroke-width="1" opacity="0.35294117647058826" d="M 311.5 292 L 312 440.5 L 311 440.5 L 311.5 292 Z " /><path fill="rgb(0,0,0)" stroke="rgb(0,0,0)" stroke-width="1" opacity="0.35294117647058826" d="M 414.5 335 L 429.5 351 L 349 350.5 L 428 349.5 L 414.5 335 Z " /><path fill="rgb(0,0,0)" stroke="rgb(0,0,0)" stroke-width="1" opacity="0.35294117647058826" d="M 34.5 344 L 33.5 346 L 34.5 344 Z " /><path fill="rgb(0,0,0)" stroke="rgb(0,0,0)" stroke-width="1" opacity="0.35294117647058826" d="M 478.5 353 L 480.5 356 L 478.5 353 Z " /><path fill="rgb(0,0,0)" stroke="rgb(0,0,0)" stroke-width="1" opacity="0.35294117647058826" d="M 340.5 354 L 339.5 356 L 340.5 354 Z " /><path fill="rgb(0,0,0)" stroke="rgb(0,0,0)" stroke-width="1" opacity="0.35294117647058826" d="M 27.5 359 L 28 361.5 L 27 361.5 L 27.5 359 Z " /><path fill="rgb(0,0,0)" stroke="rgb(0,0,0)" stroke-width="1" opacity="0.35294117647058826" d="M 338.5 376 L 341.5 380 L 338.5 376 Z " /><path fill="rgb(0,0,0)" stroke="rgb(0,0,0)" stroke-width="1" opacity="0.35294117647058826" d="M 478.5 379 L 436.5 422 L 478.5 379 Z " /><path fill="rgb(0,0,0)" stroke="rgb(0,0,0)" stroke-width="1" opacity="0.35294117647058826" d="M 347.5 382 L 350 382.5 L 347.5 383 L 347.5 382 Z " /><path fill="rgb(0,0,0)" stroke="rgb(0,0,0)" stroke-width="1" opacity="0.35294117647058826" d="M 412.5 418 L 416.5 423 L 412.5 418 Z " /><path fill="rgb(0,0,0)" stroke="rgb(0,0,0)" stroke-width="1" opacity="0.35294117647058826" d="M 424.5 425 L 427 425.5 L 424.5 426 L 424.5 425 Z " /><path fill="rgb(0,0,0)" stroke="rgb(0,0,0)" stroke-width="1" opacity="0.35294117647058826" d="M 279.5 440 L 280 444.5 L 279 444.5 L 279.5 440 Z " /><path fill="rgb(0,0,0)" stroke="rgb(0,0,0)" stroke-width="1" opacity="0.35294117647058826" d="M 248.5 450 L 249 452.5 L 248 452.5 L 248.5 450 Z " /><path fill="rgb(0,0,0)" stroke="rgb(0,0,0)" stroke-width="1" opacity="0.35294117647058826" d="M 416.5 451 L 420.5 456 L 416.5 451 Z " /><path fill="rgb(0,0,0)" stroke="rgb(0,0,0)" stroke-width="1" opacity="0.35294117647058826" d="M 392.5 456 L 391.5 458 L 392.5 456 Z " /><path fill="rgb(0,0,0)" stroke="rgb(0,0,0)" stroke-width="1" opacity="0.35294117647058826" d="M 333.5 462 L 380 462.5 L 333.5 463 L 333.5 462 Z " /><path fill="rgb(0,0,0)" stroke="rgb(0,0,0)" stroke-width="1" opacity="0.35294117647058826" d="M 33.5 465 L 34.5 467 L 33.5 465 Z " /><path fill="rgb(0,0,0)" stroke="rgb(0,0,0)" stroke-width="1" opacity="0.35294117647058826" d="M 42.5 474 L 43.5 476 L 42.5 474 Z " /><path fill="rgb(0,0,0)" stroke="rgb(0,0,0)" stroke-width="1" opacity="0.35294117647058826" d="M 292.5 474 L 299.5 482 L 292.5 474 Z " /><path fill="rgb(0,0,0)" stroke="rgb(0,0,0)" stroke-width="1" opacity="0.35294117647058826" d="M 419.5 475 L 414.5 481 L 419.5 475 Z " /><path fill="rgb(0,0,0)" stroke="rgb(0,0,0)" stroke-width="1" opacity="0.35294117647058826" d="M 59.5 481 L 63 481.5 L 59.5 482 L 59.5 481 Z " /><path fill="rgb(0,0,0)" stroke="rgb(0,0,0)" stroke-width="1" opacity="0.35294117647058826" d="M 302.5 483 L 303.5 485 L 302.5 483 Z " /><path fill="rgb(0,0,0)" stroke="rgb(0,0,0)" stroke-width="1" opacity="0.35294117647058826" d="M 329.5 494 L 335 494.5 L 329.5 495 L 329.5 494 Z " /><path fill="rgb(0,0,0)" stroke="rgb(0,0,0)" stroke-width="1" opacity="0.35294117647058826" d="M 378.5 494 L 384 494.5 L 378.5 495 L 378.5 494 Z " /></svg>